<?xml version="1.0" standalone="no"?>
<!DOCTYPE svg PUBLIC "-//W3C//DTD SVG 20010904//EN"
 "http://www.w3.org/TR/2001/REC-SVG-20010904/DTD/svg10.dtd">
<svg version="1.0" xmlns="http://www.w3.org/2000/svg"
 width="1024.000000pt" height="768.000000pt" viewBox="0 0 1024.000000 768.000000"
 preserveAspectRatio="xMidYMid meet">

<g transform="translate(0.000000,768.000000) scale(0.100000,-0.100000)"
fill="#000000" stroke="none">
<path d="M4410 4120 c0 -71 -1 -130 -2 -130 -2 0 -25 11 -52 25 -37 19 -65 25
-111 25 -121 0 -211 -54 -262 -158 -24 -49 -28 -69 -28 -142 1 -64 6 -96 21
-131 50 -109 143 -170 260 -170 74 0 109 9 155 42 l29 20 0 -30 0 -31 95 0 95
0 0 405 0 405 -100 0 -100 0 0 -130z m-62 -260 c56 -34 77 -115 48 -184 -43
-102 -179 -102 -222 0 -40 96 19 204 111 204 17 0 45 -9 63 -20z"/>
<path d="M4920 4205 c-115 -33 -178 -92 -199 -187 -17 -75 2 -139 56 -190 36
-35 75 -51 203 -83 150 -38 184 -60 160 -105 -16 -31 -44 -40 -117 -40 -77 0
-148 17 -210 48 l-42 22 -22 -48 c-11 -26 -28 -62 -35 -80 l-15 -33 55 -25
c156 -71 369 -71 491 0 116 69 148 225 65 320 -37 41 -94 67 -230 101 -121 30
-150 46 -150 80 0 67 128 87 256 41 37 -14 71 -23 75 -21 13 8 60 138 55 151
-3 7 -36 23 -73 34 -91 29 -247 36 -323 15z"/>
<path d="M2534 4197 c-3 -8 -4 -47 -2 -88 l3 -74 76 -3 76 -3 76 85 c43 46 77
87 77 90 0 3 -68 6 -150 6 -117 0 -152 -3 -156 -13z"/>
<path d="M2947 4078 c-63 -73 -185 -216 -271 -318 l-156 -185 2 -65 3 -65 60
-3 61 -3 75 83 c42 46 165 188 273 317 l197 233 -3 67 -3 66 -62 3 -61 3 -115
-133z"/>
<path d="M5477 4164 c-4 -4 -7 -40 -7 -81 l0 -73 -40 0 -40 0 0 -75 0 -75 40
0 40 0 0 -118 c0 -182 28 -247 124 -287 68 -29 257 -15 255 18 0 7 -10 39 -23
72 -15 40 -27 59 -37 57 -34 -9 -78 -5 -93 7 -13 11 -16 36 -16 132 l0 119 65
0 65 0 0 75 0 75 -65 0 -64 0 -3 78 -3 77 -95 3 c-53 1 -99 0 -103 -4z"/>
<path d="M3452 4021 c-236 -81 -273 -403 -61 -533 78 -48 233 -64 332 -34 46
14 117 59 117 74 -1 4 -23 31 -50 61 l-49 53 -33 -20 c-73 -45 -176 -37 -222
19 -14 17 -26 35 -26 40 0 5 91 9 216 9 l217 0 -6 71 c-3 40 -15 89 -27 115
-29 60 -106 127 -170 147 -68 22 -171 21 -238 -2z m172 -135 c34 -14 66 -50
66 -73 0 -10 -28 -13 -115 -13 -123 0 -130 4 -99 49 17 24 66 50 97 51 10 0
33 -6 51 -14z"/>
<path d="M6091 4024 c-87 -32 -141 -76 -179 -149 -23 -43 -27 -63 -27 -135 0
-71 4 -93 25 -134 54 -105 164 -167 299 -167 151 0 249 57 308 180 22 47 25
62 21 135 -5 96 -27 145 -89 200 -64 59 -120 79 -224 83 -65 2 -103 -1 -134
-13z m174 -158 c42 -18 67 -65 67 -125 0 -63 -16 -97 -54 -121 -62 -38 -143
-18 -174 42 -24 47 -15 140 17 174 42 45 85 54 144 30z"/>
<path d="M6925 4024 c-21 -8 -49 -24 -62 -36 l-23 -21 0 31 0 32 -100 0 -100
0 0 -295 0 -296 103 3 102 3 5 170 c3 106 10 178 17 191 17 29 73 54 122 54
l41 0 0 90 0 90 -32 -1 c-18 0 -51 -7 -73 -15z"/>
<path d="M7266 4015 c-67 -27 -127 -80 -159 -140 -32 -58 -32 -212 0 -270 31
-59 101 -119 168 -144 64 -24 194 -30 262 -12 41 11 133 65 133 79 0 4 -25 32
-55 62 -50 50 -56 52 -72 38 -24 -20 -79 -38 -117 -38 -62 1 -136 49 -136 89
0 8 68 11 209 11 l209 0 4 25 c8 41 -12 138 -37 181 -75 129 -257 182 -409
119z m209 -141 c18 -12 45 -53 45 -69 0 -3 -54 -5 -120 -5 -109 0 -119 1 -113
18 25 71 121 100 188 56z"/>
<path d="M2939 3528 l-73 -83 159 -3 c88 -1 165 0 172 2 9 4 13 29 13 86 l0
80 -99 0 -99 0 -73 -82z"/>
</g>
</svg>